<svg width="156" height="30" viewBox="0 0 156 30" fill="none" xmlns="http://www.w3.org/2000/svg">
<path d="M0.656 0.599998H5.84V18.776H17.072V23H0.656V0.599998ZM27.6835 23.256C25.8702 23.256 24.2382 22.8827 22.7875 22.136C21.3582 21.368 20.2382 20.312 19.4275 18.968C18.6168 17.624 18.2115 16.0987 18.2115 14.392C18.2115 12.6853 18.6168 11.16 19.4275 9.816C20.2382 8.472 21.3582 7.42667 22.7875 6.68C24.2382 5.912 25.8702 5.528 27.6835 5.528C29.4968 5.528 31.1182 5.912 32.5475 6.68C33.9768 7.42667 35.0968 8.472 35.9075 9.816C36.7182 11.16 37.1235 12.6853 37.1235 14.392C37.1235 16.0987 36.7182 17.624 35.9075 18.968C35.0968 20.312 33.9768 21.368 32.5475 22.136C31.1182 22.8827 29.4968 23.256 27.6835 23.256ZM27.6835 19.16C28.9635 19.16 30.0088 18.7333 30.8195 17.88C31.6515 17.0053 32.0675 15.8427 32.0675 14.392C32.0675 12.9413 31.6515 11.7893 30.8195 10.936C30.0088 10.0613 28.9635 9.624 27.6835 9.624C26.4035 9.624 25.3475 10.0613 24.5155 10.936C23.6835 11.7893 23.2675 12.9413 23.2675 14.392C23.2675 15.8427 23.6835 17.0053 24.5155 17.88C25.3475 18.7333 26.4035 19.16 27.6835 19.16ZM58.2203 5.784V20.12C58.2203 23.2773 57.3989 25.624 55.7563 27.16C54.1136 28.696 51.7136 29.464 48.5563 29.464C46.8923 29.464 45.3136 29.2613 43.8203 28.856C42.3269 28.4507 41.0896 27.864 40.1083 27.096L42.0923 23.512C42.8176 24.1093 43.7349 24.5787 44.8443 24.92C45.9536 25.2827 47.0629 25.464 48.1723 25.464C49.9003 25.464 51.1696 25.0693 51.9803 24.28C52.8123 23.512 53.2283 22.3387 53.2283 20.76V20.024C51.9269 21.4533 50.1136 22.168 47.7883 22.168C46.2096 22.168 44.7589 21.8267 43.4363 21.144C42.1349 20.44 41.1003 19.4587 40.3323 18.2C39.5643 16.9413 39.1803 15.4907 39.1803 13.848C39.1803 12.2053 39.5643 10.7547 40.3323 9.496C41.1003 8.23733 42.1349 7.26667 43.4363 6.584C44.7589 5.88 46.2096 5.528 47.7883 5.528C50.2843 5.528 52.1829 6.34933 53.4843 7.992V5.784H58.2203ZM48.7803 18.072C50.1029 18.072 51.1803 17.688 52.0123 16.92C52.8656 16.1307 53.2923 15.1067 53.2923 13.848C53.2923 12.5893 52.8656 11.576 52.0123 10.808C51.1803 10.0187 50.1029 9.624 48.7803 9.624C47.4576 9.624 46.3696 10.0187 45.5163 10.808C44.6629 11.576 44.2363 12.5893 44.2363 13.848C44.2363 15.1067 44.6629 16.1307 45.5163 16.92C46.3696 17.688 47.4576 18.072 48.7803 18.072ZM71.0585 23.256C69.2452 23.256 67.6132 22.8827 66.1625 22.136C64.7332 21.368 63.6132 20.312 62.8025 18.968C61.9918 17.624 61.5865 16.0987 61.5865 14.392C61.5865 12.6853 61.9918 11.16 62.8025 9.816C63.6132 8.472 64.7332 7.42667 66.1625 6.68C67.6132 5.912 69.2452 5.528 71.0585 5.528C72.8718 5.528 74.4932 5.912 75.9225 6.68C77.3518 7.42667 78.4718 8.472 79.2825 9.816C80.0932 11.16 80.4985 12.6853 80.4985 14.392C80.4985 16.0987 80.0932 17.624 79.2825 18.968C78.4718 20.312 77.3518 21.368 75.9225 22.136C74.4932 22.8827 72.8718 23.256 71.0585 23.256ZM71.0585 19.16C72.3385 19.16 73.3838 18.7333 74.1945 17.88C75.0265 17.0053 75.4425 15.8427 75.4425 14.392C75.4425 12.9413 75.0265 11.7893 74.1945 10.936C73.3838 10.0613 72.3385 9.624 71.0585 9.624C69.7785 9.624 68.7225 10.0613 67.8905 10.936C67.0585 11.7893 66.6425 12.9413 66.6425 14.392C66.6425 15.8427 67.0585 17.0053 67.8905 17.88C68.7225 18.7333 69.7785 19.16 71.0585 19.16ZM94.9393 22.168C94.4486 22.5307 93.8406 22.808 93.1153 23C92.4113 23.1707 91.6646 23.256 90.8753 23.256C88.8273 23.256 87.2379 22.7333 86.1073 21.688C84.9979 20.6427 84.4433 19.1067 84.4433 17.08V10.008H81.7873V6.168H84.4433V1.976H89.4353V6.168H93.7233V10.008H89.4353V17.016C89.4353 17.7413 89.6166 18.3067 89.9792 18.712C90.3633 19.096 90.8966 19.288 91.5793 19.288C92.3686 19.288 93.0406 19.0747 93.5953 18.648L94.9393 22.168ZM114.517 5.784L106.741 24.056C105.952 26.04 104.97 27.4373 103.797 28.248C102.645 29.0587 101.248 29.464 99.605 29.464C98.709 29.464 97.8237 29.3253 96.949 29.048C96.0743 28.7707 95.3597 28.3867 94.805 27.896L96.629 24.344C97.013 24.6853 97.4503 24.952 97.941 25.144C98.453 25.336 98.9543 25.432 99.445 25.432C100.128 25.432 100.682 25.2613 101.109 24.92C101.536 24.6 101.92 24.056 102.261 23.288L102.325 23.128L94.869 5.784H100.021L104.853 17.464L109.717 5.784H114.517ZM126.73 5.528C128.33 5.528 129.781 5.90133 131.082 6.648C132.405 7.37333 133.439 8.408 134.186 9.752C134.933 11.0747 135.306 12.6213 135.306 14.392C135.306 16.1627 134.933 17.72 134.186 19.064C133.439 20.3867 132.405 21.4213 131.082 22.168C129.781 22.8933 128.33 23.256 126.73 23.256C124.533 23.256 122.805 22.5627 121.546 21.176V29.208H116.554V5.784H121.322V7.768C122.559 6.27467 124.362 5.528 126.73 5.528ZM125.866 19.16C127.146 19.16 128.191 18.7333 129.002 17.88C129.834 17.0053 130.25 15.8427 130.25 14.392C130.25 12.9413 129.834 11.7893 129.002 10.936C128.191 10.0613 127.146 9.624 125.866 9.624C124.586 9.624 123.53 10.0613 122.698 10.936C121.887 11.7893 121.482 12.9413 121.482 14.392C121.482 15.8427 121.887 17.0053 122.698 17.88C123.53 18.7333 124.586 19.16 125.866 19.16ZM155.512 14.456C155.512 14.52 155.48 14.968 155.416 15.8H142.392C142.626 16.8667 143.181 17.7093 144.056 18.328C144.93 18.9467 146.018 19.256 147.32 19.256C148.216 19.256 149.005 19.128 149.688 18.872C150.392 18.5947 151.042 18.168 151.64 17.592L154.296 20.472C152.674 22.328 150.306 23.256 147.192 23.256C145.25 23.256 143.533 22.8827 142.04 22.136C140.546 21.368 139.394 20.312 138.584 18.968C137.773 17.624 137.368 16.0987 137.368 14.392C137.368 12.7067 137.762 11.192 138.552 9.848C139.362 8.48267 140.461 7.42667 141.848 6.68C143.256 5.912 144.824 5.528 146.552 5.528C148.237 5.528 149.762 5.89067 151.128 6.616C152.493 7.34133 153.56 8.38667 154.328 9.752C155.117 11.096 155.512 12.664 155.512 14.456ZM146.584 9.304C145.453 9.304 144.504 9.624 143.736 10.264C142.968 10.904 142.498 11.7787 142.328 12.888H150.808C150.637 11.8 150.168 10.936 149.4 10.296C148.632 9.63467 147.693 9.304 146.584 9.304Z" fill="white"/>
</svg>
