<svg viewBox="0 0 22 22" fill="none" xmlns="http://www.w3.org/2000/svg">
<path fill-rule="evenodd" clip-rule="evenodd" d="M17.4167 12.454V9.16683C17.4167 6.21791 15.4138 3.73375 12.7004 2.98666C12.4318 2.31016 11.7755 1.8335 11 1.8335C10.2245 1.8335 9.56817 2.31016 9.29958 2.98666C6.58625 3.73466 4.58333 6.21791 4.58333 9.16683V12.454L3.01858 14.0187C2.84625 14.1902 2.75 14.423 2.75 14.6668V16.5002C2.75 17.0071 3.15975 17.4168 3.66667 17.4168H18.3333C18.8403 17.4168 19.25 17.0071 19.25 16.5002V14.6668C19.25 14.423 19.1537 14.1902 18.9814 14.0187L17.4167 12.454ZM17.4168 15.5835H4.5835V15.0463L6.14825 13.4816C6.32058 13.3102 6.41683 13.0773 6.41683 12.8335V9.16683C6.41683 6.63958 8.47291 4.58349 11.0002 4.58349C13.5274 4.58349 15.5835 6.63958 15.5835 9.16683V12.8335C15.5835 13.0773 15.6797 13.3102 15.8521 13.4816L17.4168 15.0463V15.5835ZM11.0002 20.1668C12.2019 20.1668 13.2066 19.4023 13.5833 18.3335H8.41699C8.79374 19.4023 9.79841 20.1668 11.0002 20.1668Z" fill="currentColor"/>
</svg>
