<svg viewBox="0 0 16 16" fill="none" xmlns="http://www.w3.org/2000/svg">
<path d="M7.33337 7.99984C7.33337 8.17665 7.40361 8.34622 7.52864 8.47124C7.65366 8.59627 7.82323 8.6665 8.00004 8.6665C8.17685 8.6665 8.34642 8.59627 8.47145 8.47124C8.59647 8.34622 8.66671 8.17665 8.66671 7.99984C8.66671 7.82303 8.59647 7.65346 8.47145 7.52843C8.34642 7.40341 8.17685 7.33317 8.00004 7.33317C7.82323 7.33317 7.65366 7.40341 7.52864 7.52843C7.40361 7.65346 7.33337 7.82303 7.33337 7.99984Z" stroke="currentColor" stroke-width="2" stroke-linecap="round" stroke-linejoin="round"/>
<path d="M7.33337 12.6665C7.33337 12.8433 7.40361 13.0129 7.52864 13.1379C7.65366 13.2629 7.82323 13.3332 8.00004 13.3332C8.17685 13.3332 8.34642 13.2629 8.47145 13.1379C8.59647 13.0129 8.66671 12.8433 8.66671 12.6665C8.66671 12.4897 8.59647 12.3201 8.47145 12.1951C8.34642 12.0701 8.17685 11.9998 8.00004 11.9998C7.82323 11.9998 7.65366 12.0701 7.52864 12.1951C7.40361 12.3201 7.33337 12.4897 7.33337 12.6665Z" stroke="currentColor" stroke-width="2" stroke-linecap="round" stroke-linejoin="round"/>
<path d="M7.33337 3.33317C7.33337 3.50998 7.40361 3.67955 7.52864 3.80458C7.65366 3.9296 7.82323 3.99984 8.00004 3.99984C8.17685 3.99984 8.34642 3.9296 8.47145 3.80458C8.59647 3.67955 8.66671 3.50998 8.66671 3.33317C8.66671 3.15636 8.59647 2.98679 8.47145 2.86177C8.34642 2.73674 8.17685 2.6665 8.00004 2.6665C7.82323 2.6665 7.65366 2.73674 7.52864 2.86177C7.40361 2.98679 7.33337 3.15636 7.33337 3.33317Z" stroke="currentColor" stroke-width="2" stroke-linecap="round" stroke-linejoin="round"/>
</svg>
