<svg viewBox="0 0 20 21" fill="none" xmlns="http://www.w3.org/2000/svg">
<path fill-rule="evenodd" clip-rule="evenodd" d="M10 5.90055C7.23857 5.90055 5 8.13912 5 10.9006V16.7339C5 17.1941 4.62691 17.5672 4.16667 17.5672H2.5C1.57954 17.5672 0.833336 16.821 0.833336 15.9006V12.5672C0.833336 11.6467 1.57954 10.9006 2.5 10.9006H3.33334C3.33334 7.21865 6.3181 4.23389 10 4.23389C13.6819 4.23389 16.6667 7.21865 16.6667 10.9006H17.5C18.4205 10.9006 19.1667 11.6467 19.1667 12.5672V15.9006C19.1667 16.821 18.4205 17.5672 17.5 17.5672H15.8333C15.3731 17.5672 15 17.1941 15 16.7339V10.9006C15 8.13912 12.7614 5.90055 10 5.90055ZM16.6667 12.5672V15.9006H17.5V12.5672H16.6667ZM3.33334 12.5672H2.5V15.9006H3.33334V12.5672ZM9.16667 10.9006C9.52536 10.9006 9.84381 11.1301 9.95724 11.4704L10.8333 14.0987L10.8761 13.9704C10.9895 13.6301 11.308 13.4006 11.6667 13.4006H13.3333C13.7936 13.4006 14.1667 13.7736 14.1667 14.2339C14.1667 14.6941 13.7936 15.0672 13.3333 15.0672H12.2673L11.6239 16.9974C11.5105 17.3377 11.192 17.5672 10.8333 17.5672C10.4746 17.5672 10.1562 17.3377 10.0428 16.9974L9.16667 14.3691L9.12391 14.4974C9.01048 14.8377 8.69203 15.0672 8.33333 15.0672H6.66667C6.20643 15.0672 5.83334 14.6941 5.83334 14.2339C5.83334 13.7736 6.20643 13.4006 6.66667 13.4006H7.7327L8.3761 11.4704C8.48953 11.1301 8.80798 10.9006 9.16667 10.9006Z" fill="currentColor"/>
</svg>
