<svg viewBox="0 0 20 21" fill="none" xmlns="http://www.w3.org/2000/svg">
<path d="M11.6667 7.56722V5.90055C11.6667 5.45853 11.4911 5.0346 11.1785 4.72204C10.8659 4.40948 10.442 4.23389 10 4.23389H4.16667C3.72464 4.23389 3.30072 4.40948 2.98816 4.72204C2.67559 5.0346 2.5 5.45853 2.5 5.90055V15.9006C2.5 16.3426 2.67559 16.7665 2.98816 17.0791C3.30072 17.3916 3.72464 17.5672 4.16667 17.5672H10C10.442 17.5672 10.8659 17.3916 11.1785 17.0791C11.4911 16.7665 11.6667 16.3426 11.6667 15.9006V14.2339" stroke="currentColor" stroke-width="1.5" stroke-linecap="round" stroke-linejoin="round"/>
<path d="M16.6667 10.9004H5.83332M5.83332 10.9004L8.33332 8.40039M5.83332 10.9004L8.33332 13.4004" stroke="currentColor" stroke-width="1.5" stroke-linecap="round" stroke-linejoin="round"/>
</svg>
