<svg viewBox="0 0 20 21" fill="none" xmlns="http://www.w3.org/2000/svg">
<path d="M7.5 4.6665H5.83333C5.3913 4.6665 4.96738 4.8421 4.65482 5.15466C4.34226 5.46722 4.16666 5.89114 4.16666 6.33317V16.3332C4.16666 16.7752 4.34226 17.1991 4.65482 17.5117C4.96738 17.8242 5.3913 17.9998 5.83333 17.9998H14.1667C14.6087 17.9998 15.0326 17.8242 15.3452 17.5117C15.6577 17.1991 15.8333 16.7752 15.8333 16.3332V6.33317C15.8333 5.89114 15.6577 5.46722 15.3452 5.15466C15.0326 4.8421 14.6087 4.6665 14.1667 4.6665H12.5" stroke="currentColor" stroke-width="1.5" stroke-linecap="round" stroke-linejoin="round"/>
<path d="M10.8333 3H9.16667C8.24619 3 7.5 3.74619 7.5 4.66667C7.5 5.58714 8.24619 6.33333 9.16667 6.33333H10.8333C11.7538 6.33333 12.5 5.58714 12.5 4.66667C12.5 3.74619 11.7538 3 10.8333 3Z" stroke="currentColor" stroke-width="1.5" stroke-linecap="round" stroke-linejoin="round"/>
<path d="M7.5 12.1665H7.50833" stroke="currentColor" stroke-width="1.5" stroke-linecap="round" stroke-linejoin="round"/>
<path d="M7.5 14.6665H7.50833" stroke="currentColor" stroke-width="1.5" stroke-linecap="round" stroke-linejoin="round"/>
<path d="M10 13.8332L10.8333 14.6665L13.3333 12.1665" stroke="currentColor" stroke-width="1.5" stroke-linecap="round" stroke-linejoin="round"/>
</svg>
