<svg viewBox="0 0 16 16" fill="none" xmlns="http://www.w3.org/2000/svg">
<path d="M6.66634 12.0007C7.89701 12.0007 9.02834 11.5773 9.93101 10.8753L12.8617 13.806L13.8043 12.8633L10.8737 9.93265C11.5763 9.02932 11.9997 7.89798 11.9997 6.66732C11.9997 3.72665 9.60701 1.33398 6.66634 1.33398C3.72567 1.33398 1.33301 3.72665 1.33301 6.66732C1.33301 9.60798 3.72567 12.0007 6.66634 12.0007ZM6.66634 2.66732C8.87234 2.66732 10.6663 4.46132 10.6663 6.66732C10.6663 8.87332 8.87234 10.6673 6.66634 10.6673C4.46034 10.6673 2.66634 8.87332 2.66634 6.66732C2.66634 4.46132 4.46034 2.66732 6.66634 2.66732Z" fill="currentColor"/>
<path d="M7.60805 5.72406C7.86071 5.97739 8.00005 6.31206 8.00005 6.66672H9.33338C9.33338 5.95672 9.05605 5.28739 8.55071 4.78139C7.54138 3.77339 5.79138 3.77339 4.78271 4.78139L5.72405 5.72539C6.23072 5.22006 7.10405 5.22139 7.60805 5.72406Z" fill="currentColor"/>
</svg>
