<svg viewBox="0 0 20 21" fill="none" xmlns="http://www.w3.org/2000/svg">
<path d="M8.60417 4.49789C8.95917 3.03456 11.0408 3.03456 11.3958 4.49789C11.4491 4.71772 11.5535 4.92187 11.7006 5.09372C11.8477 5.26557 12.0332 5.40027 12.2422 5.48685C12.4512 5.57342 12.6776 5.60943 12.9032 5.59195C13.1287 5.57446 13.3469 5.50398 13.54 5.38622C14.8258 4.60289 16.2983 6.07456 15.515 7.36122C15.3974 7.55427 15.327 7.77234 15.3096 7.9977C15.2922 8.22307 15.3281 8.44936 15.4146 8.65821C15.5011 8.86705 15.6356 9.05254 15.8073 9.1996C15.9789 9.34666 16.1829 9.45115 16.4025 9.50456C17.8658 9.85956 17.8658 11.9412 16.4025 12.2962C16.1827 12.3495 15.9785 12.4539 15.8067 12.601C15.6348 12.7481 15.5001 12.9336 15.4135 13.1426C15.327 13.3516 15.291 13.578 15.3084 13.8035C15.3259 14.0291 15.3964 14.2473 15.5142 14.4404C16.2975 15.7262 14.8258 17.1987 13.5392 16.4154C13.3461 16.2978 13.1281 16.2274 12.9027 16.21C12.6773 16.1925 12.451 16.2285 12.2422 16.315C12.0333 16.4015 11.8479 16.536 11.7008 16.7077C11.5537 16.8793 11.4492 17.0833 11.3958 17.3029C11.0408 18.7662 8.95917 18.7662 8.60417 17.3029C8.5509 17.0831 8.44648 16.8789 8.29941 16.7071C8.15233 16.5352 7.96676 16.4005 7.75779 16.3139C7.54882 16.2274 7.32236 16.1913 7.09685 16.2088C6.87133 16.2263 6.65313 16.2968 6.46 16.4146C5.17417 17.1979 3.70167 15.7262 4.485 14.4396C4.60258 14.2465 4.67296 14.0284 4.6904 13.8031C4.70785 13.5777 4.67187 13.3514 4.58539 13.1426C4.49892 12.9337 4.36438 12.7482 4.19273 12.6012C4.02107 12.4541 3.81714 12.3496 3.5975 12.2962C2.13417 11.9412 2.13417 9.85956 3.5975 9.50456C3.81733 9.45129 4.02148 9.34687 4.19333 9.1998C4.36518 9.05272 4.49988 8.86715 4.58645 8.65818C4.67303 8.44921 4.70904 8.22275 4.69156 7.99724C4.67407 7.77172 4.60359 7.55352 4.48583 7.36039C3.7025 6.07456 5.17417 4.60206 6.46083 5.38539C7.29417 5.89206 8.37417 5.44372 8.60417 4.49789Z" stroke="currentColor" stroke-width="1.5" stroke-linecap="round" stroke-linejoin="round"/>
<path d="M10 13.4004C11.3807 13.4004 12.5 12.2811 12.5 10.9004C12.5 9.51968 11.3807 8.40039 10 8.40039C8.61929 8.40039 7.5 9.51968 7.5 10.9004C7.5 12.2811 8.61929 13.4004 10 13.4004Z" stroke="currentColor" stroke-width="1.5" stroke-linecap="round" stroke-linejoin="round"/>
</svg>
