<svg xmlns="http://www.w3.org/2000/svg" fill="none" viewBox="0 0 24 24"><path fill="currentColor" fill-rule="evenodd" d="M11.12 3.044A9.01 9.01 0 0 0 3.918 8.06a8.92 8.92 0 0 0 .001 7.88c1.315 2.679 3.783 4.494 6.745 4.96.218.035.675.073 1.016.087 4.678.18 8.713-3.294 9.26-7.975.033-.281.06-.624.06-.762V12h-1.985l-.046.54c-.236 2.75-1.929 5.014-4.489 6.002-.8.309-1.533.438-2.48.437-.767-.001-1.05-.034-1.725-.202a6.99 6.99 0 0 1-5.092-5.227A7 7 0 0 1 7.92 6.32c1.636-1.173 3.649-1.578 5.64-1.135a7.1 7.1 0 0 1 3.048 1.55l.348.302.7-.708.7-.709-.266-.24a9.1 9.1 0 0 0-4.77-2.278c-.518-.079-1.69-.11-2.2-.058"/></svg>
