<svg viewBox="0 0 20 21" fill="none" xmlns="http://www.w3.org/2000/svg">
<path d="M7.5 9.66667C9.34095 9.66667 10.8333 8.17428 10.8333 6.33333C10.8333 4.49238 9.34095 3 7.5 3C5.65905 3 4.16666 4.49238 4.16666 6.33333C4.16666 8.17428 5.65905 9.66667 7.5 9.66667Z" stroke="currentColor" stroke-width="1.5" stroke-linecap="round" stroke-linejoin="round"/>
<path d="M2.5 18V16.3333C2.5 15.4493 2.85119 14.6014 3.47631 13.9763C4.10143 13.3512 4.94928 13 5.83333 13H9.16667C10.0507 13 10.8986 13.3512 11.5237 13.9763C12.1488 14.6014 12.5 15.4493 12.5 16.3333V18" stroke="currentColor" stroke-width="1.5" stroke-linecap="round" stroke-linejoin="round"/>
<path d="M13.3333 3.1084C14.0503 3.29198 14.6859 3.70898 15.1397 4.29366C15.5935 4.87833 15.8399 5.59742 15.8399 6.33757C15.8399 7.07771 15.5935 7.7968 15.1397 8.38147C14.6859 8.96615 14.0503 9.38315 13.3333 9.56673" stroke="currentColor" stroke-width="1.5" stroke-linecap="round" stroke-linejoin="round"/>
<path d="M17.5 18V16.3333C17.4958 15.5976 17.2483 14.884 16.7961 14.3037C16.3439 13.7233 15.7124 13.3089 15 13.125" stroke="currentColor" stroke-width="1.5" stroke-linecap="round" stroke-linejoin="round"/>
</svg>
